<svg xmlns="http://www.w3.org/2000/svg" xml:space="preserve" viewBox="0 0 112 112" fill="#fff"><path d="M56.1 11.1c-24.8 0-45 20.2-45 45s20.2 45 45 45 45-20.2 45-45-20.2-45-45-45zm0 7c9.6 0 18.3 3.7 25.1 9.5-1.2 1.5-6.8 8.7-19.7 13.5C55.6 30.2 49 21.2 47.5 19c2.8-.6 5.7-.9 8.6-.9zm-16.2 3.6c1.3 1.9 7.8 11 13.9 21.7-16.4 4.3-31 4.7-34.3 4.5h-.3c2.3-11.6 10.1-21.1 20.7-26.2zM18.2 56.1v-.9h1c4.6 0 21.1-.3 37.9-5.5 1 2 2 4.1 2.9 6-.3.1-.9.2-1.3.3-19 6.3-29.6 22.7-31.1 25.1-5.8-6.5-9.4-15.3-9.4-25zm37.9 38.3c-8.7 0-16.8-3-23.2-8 1.2-2.1 8.9-16.4 29.8-23.6 5.3 13.6 7.5 25 8.1 28.7-4.5 1.8-9.5 2.9-14.7 2.9zm21.6-6.9c-.5-2.9-2.7-13.6-7.3-26.7 2.7-.3 5.2-.6 7.7-.6 8 0 14.3 1.6 15.7 2.1-1.9 10.4-7.8 19.5-16.1 25.2zm-1.2-33.8c-2.8 0-5.8.1-8.7.5-.2-.5-.5-1.2-.8-1.7-.8-1.7-1.5-3.5-2.4-5.3 13.2-5.5 19.7-13 21-15 5.2 6.4 8.4 14.5 8.5 23.3-1.7-.4-8.9-1.8-17.6-1.8z"/></svg>